HIERARCHY
ROOT Pelvis
{
	OFFSET 0.000000 0.000000 0.000000
	CHANNELS 6 Xposition Yposition Zposition Xrotation Yrotation Zrotation
	JOINT LeftUpLeg_virtual
	{
		OFFSET 0.000000 0.000000 0.000000
		CHANNELS 3 Xrotation Yrotation Zrotation
		JOINT LeftUpLeg
		{
			OFFSET 18.735201 -5.666702 -4.541200
			CHANNELS 3 Xrotation Yrotation Zrotation
			JOINT LeftLeg
			{
				OFFSET -0.021200 -31.938179 0.493100
				CHANNELS 3 Xrotation Yrotation Zrotation
				JOINT LeftFoot
				{
					OFFSET 0.021200 -31.938179 -4.336299
					CHANNELS 3 Xrotation Yrotation Zrotation
					JOINT LeftToeBase
					{
						OFFSET 0.943001 -26.722000 15.023500
						CHANNELS 3 Xrotation Yrotation Zrotation
						End Site
						{
							OFFSET 0 0 0
						}
					}
				}
			}
		}
	}
	JOINT RightUpLeg_virtual
	{
		OFFSET 0.000000 0.000000 0.000000
		CHANNELS 3 Xrotation Yrotation Zrotation
		JOINT RightUpLeg
		{
			OFFSET -18.735201 -5.666702 -4.541200
			CHANNELS 3 Xrotation Yrotation Zrotation
			JOINT RightLeg
			{
				OFFSET 0.018946 -31.938133 0.493100
				CHANNELS 3 Xrotation Yrotation Zrotation
				JOINT RightFoot
				{
					OFFSET -0.018946 -31.938126 -4.336299
					CHANNELS 3 Xrotation Yrotation Zrotation
					JOINT RightToeBase
					{
						OFFSET -0.943001 -26.722004 15.023500
						CHANNELS 3 Xrotation Yrotation Zrotation
						End Site
						{
							OFFSET 0 0 0
						}
					}
				}
			}
		}
	}
	JOINT Hips_virtual
	{
		OFFSET 0.000000 0.000000 0.000000
		CHANNELS 3 Xrotation Yrotation Zrotation
		JOINT Hips
		{
			OFFSET -0.000000 -0.000000 -0.000000
			CHANNELS 3 Xrotation Yrotation Zrotation
			JOINT Spine
			{
				OFFSET 0.000000 10.199997 -0.299500
				CHANNELS 3 Xrotation Yrotation Zrotation
				JOINT Spine1
				{
					OFFSET 0.000000 11.900002 -1.516600
					CHANNELS 3 Xrotation Yrotation Zrotation
					JOINT Spine2
					{
						OFFSET 0.000000 13.600006 -2.842500
						CHANNELS 3 Xrotation Yrotation Zrotation
						JOINT Neck_virtual
						{
							OFFSET 0.000000 0.000000 0.000000
							CHANNELS 3 Xrotation Yrotation Zrotation
							JOINT Neck
							{
								OFFSET 0.000000 9.624100 -2.890100
								CHANNELS 3 Xrotation Yrotation Zrotation
								JOINT Head
								{
									OFFSET 0.000000 14.068802 -1.351900
									CHANNELS 3 Xrotation Yrotation Zrotation
									End Site
									{
										OFFSET 0 0 0
									}
								}
							}
						}
						JOINT LeftShoulder_virtual
						{
							OFFSET 0.000000 0.000000 0.000000
							CHANNELS 3 Xrotation Yrotation Zrotation
							JOINT LeftShoulder
							{
								OFFSET 15.263000 10.923401 -0.547700
								CHANNELS 3 Xrotation Yrotation Zrotation
								JOINT LeftArm
								{
									OFFSET 25.438599 -2.830597 -13.032500
									CHANNELS 3 Xrotation Yrotation Zrotation
									JOINT LeftForeArm
									{
										OFFSET 29.960503 0.000000 0.000000
										CHANNELS 3 Xrotation Yrotation Zrotation
										JOINT LeftHand
										{
											OFFSET 27.849251 0.000000 0.000000
											CHANNELS 3 Xrotation Yrotation Zrotation
											End Site
											{
												OFFSET 0 0 0
											}
										}
									}
								}
							}
						}
						JOINT RightShoulder_virtual
						{
							OFFSET 0.000000 0.000000 0.000000
							CHANNELS 3 Xrotation Yrotation Zrotation
							JOINT RightShoulder
							{
								OFFSET -15.263000 10.923401 -0.547700
								CHANNELS 3 Xrotation Yrotation Zrotation
								JOINT RightArm
								{
									OFFSET -25.438599 -2.830597 -13.032500
									CHANNELS 3 Xrotation Yrotation Zrotation
									JOINT RightForeArm
									{
										OFFSET -29.960503 0.000000 0.000000
										CHANNELS 3 Xrotation Yrotation Zrotation
										JOINT RightHand
										{
											OFFSET -27.849251 0.000000 0.000000
											CHANNELS 3 Xrotation Yrotation Zrotation
											End Site
											{
												OFFSET 0 0 0
											}
										}
									}
								}
							}
						}
					}
				}
			}
		}
	}
}
MOTION
Frames: 13
Frame Time: 0.03333333
-4.702096 92.410461 0.417528 0.000000 0.000000 0.000000 -19.787463 -82.300071 -20.874402 -20.567463 13.666782 11.564562 34.172601 -3.163352 5.774910 -11.994727 1.916570 -9.141945 0.000000 0.000000 0.000000 -19.787463 -82.300071 -20.874402 -13.637064 -22.495710 -11.043856 26.318462 9.055215 -9.805045 -11.266458 -2.331548 13.523404 0.000000 0.000000 0.000000 -19.787463 -82.300071 -20.874402 0.000000 0.000001 0.000000 2.271229 0.104868 -0.057400 4.588850 0.048045 1.587649 0.000000 0.000000 0.000000 4.566499 0.058996 1.631779 -2.652498 3.607736 -1.809916 0.000000 0.000000 0.000000 4.566499 0.058996 1.631779 -0.232475 4.637869 -1.359673 25.122293 -77.231278 -42.206191 -0.000006 -14.145786 -0.000012 0.000000 0.000000 0.000000 4.566499 0.058996 1.631779 1.612989 4.329181 7.043630 8.595133 25.593737 60.579516 0.000019 32.803664 -0.000015 0.000000 0.000000 0.000000 
-4.707518 92.417992 0.414230 0.000000 0.000000 0.000000 -19.904495 -82.291082 -20.987660 -20.531402 13.681815 11.549204 34.138867 -3.162273 5.791427 -11.979167 1.918560 -9.147498 0.000000 0.000000 0.000000 -19.904495 -82.291082 -20.987660 -13.594610 -22.511042 -11.040261 26.283912 9.064886 -9.806003 -11.257620 -2.332155 13.524563 0.000000 0.000000 0.000000 -19.904495 -82.291082 -20.987660 0.000000 0.000000 0.000000 2.266366 0.095474 -0.055007 4.580604 0.031468 1.605107 0.000000 0.000000 0.000000 4.558147 0.042193 1.649043 -2.636419 3.614592 -1.831801 0.000000 0.000000 0.000000 4.558147 0.042193 1.649043 -0.234248 4.680282 -1.477822 26.581606 -77.401999 -40.727493 0.000002 -14.148540 -0.000008 0.000000 0.000000 0.000000 4.558147 0.042193 1.649043 1.618817 4.365938 6.951333 8.569719 25.644849 60.639171 0.000007 32.733945 -0.000010 0.000000 0.000000 0.000000 
-4.713207 92.425705 0.411098 0.000000 0.000000 0.000000 -20.020078 -82.281868 -21.104234 -20.495460 13.681666 11.542085 34.109678 -3.157836 5.799494 -11.967501 1.920005 -9.153866 0.000000 0.000000 0.000000 -20.020078 -82.281868 -21.104234 -13.544540 -22.520228 -11.032545 26.240158 9.068954 -9.795811 -11.244573 -2.331694 13.521877 0.000000 0.000000 0.000000 -20.020078 -82.281868 -21.104234 0.000000 0.000000 0.000000 2.259542 0.083607 -0.048128 4.568350 0.010020 1.625758 0.000000 0.000000 0.000000 4.545688 0.020612 1.669545 -2.618795 3.622112 -1.854555 0.000000 0.000000 0.000000 4.545688 0.020612 1.669545 -0.236515 4.731588 -1.616345 28.224999 -77.569092 -39.068180 0.000005 -14.159480 -0.000013 0.000000 0.000000 0.000000 4.545688 0.020612 1.669545 1.625856 4.410187 6.848791 8.546706 25.709182 60.700984 0.000006 32.649674 -0.000013 0.000000 0.000000 0.000000 
-4.718650 92.433609 0.408587 0.000000 0.000000 0.000000 -20.124867 -82.271172 -21.214390 -20.461290 13.666662 11.540456 34.084809 -3.150547 5.801907 -11.958538 1.920801 -9.161221 0.000000 0.000000 0.000000 -20.124867 -82.271172 -21.214390 -13.488187 -22.524746 -11.022303 26.187364 9.067816 -9.774075 -11.227351 -2.330322 13.515476 0.000000 0.000000 0.000000 -20.124867 -82.271172 -21.214390 0.000000 0.000000 0.000000 2.251667 0.069848 -0.036140 4.553621 -0.015310 1.649033 0.000000 0.000000 0.000000 4.530657 -0.004754 1.692760 -2.600627 3.630135 -1.877886 0.000000 0.000000 0.000000 4.530657 -0.004754 1.692760 -0.239165 4.791735 -1.775043 30.042608 -77.727211 -37.237273 -0.000003 -14.178589 0.000016 0.000000 0.000000 0.000000 4.530657 -0.004754 1.692760 1.633870 4.460068 6.738922 8.526315 25.781068 60.764792 0.000020 32.555270 -0.000026 0.000000 0.000000 0.000000 
-4.722773 92.441559 0.406725 0.000000 0.000000 0.000000 -20.205839 -82.257976 -21.303862 -20.430791 13.637587 11.539664 34.062078 -3.138711 5.802501 -11.949208 1.921104 -9.170357 0.000000 0.000000 0.000000 -20.205839 -82.257976 -21.303862 -13.429389 -22.527692 -11.011133 26.127463 9.063045 -9.743816 -11.206235 -2.328407 13.506400 0.000000 0.000000 0.000000 -20.205839 -82.257976 -21.303862 0.000000 0.000000 0.000000 2.243989 0.055404 -0.018867 4.538629 -0.042541 1.674177 0.000000 0.000000 0.000000 4.515269 -0.031862 1.717976 -2.583128 3.638487 -1.901385 0.000000 0.000000 0.000000 4.515269 -0.031862 1.717976 -0.241921 4.857634 -1.946195 31.985967 -77.874047 -35.281417 -0.000003 -14.201007 0.000013 0.000000 0.000000 0.000000 4.515269 -0.031862 1.717976 1.642503 4.513233 6.629208 8.509119 25.847475 60.828449 -0.000002 32.462188 0.000006 0.000000 0.000000 0.000000 
-4.723738 92.449005 0.404669 0.000000 0.000000 0.000000 -20.246945 -82.242677 -21.355203 -20.408638 13.596567 11.535682 34.041830 -3.119949 5.806008 -11.936877 1.921237 -9.182760 0.000000 0.000000 0.000000 -20.246945 -82.242677 -21.355203 -13.375753 -22.531776 -10.998894 26.066816 9.055683 -9.712386 -11.182747 -2.326734 13.496800 0.000000 0.000000 0.000000 -20.246945 -82.242677 -21.355203 0.000000 0.000000 0.000000 2.238037 0.041804 0.003124 4.526208 -0.068593 1.700281 0.000000 0.000000 0.000000 4.502387 -0.057624 1.744305 -2.567626 3.646939 -1.924498 0.000000 0.000000 0.000000 4.502387 -0.057624 1.744305 -0.244451 4.922998 -2.114203 33.971179 -78.012385 -33.281613 -0.000002 -14.217967 0.000004 0.000000 0.000000 0.000000 4.502387 -0.057624 1.744305 1.651307 4.567006 6.530769 8.495715 25.888574 60.888534 0.000024 32.389017 -0.000029 0.000000 0.000000 0.000000 
-4.718930 92.455048 0.400869 0.000000 0.000000 0.000000 -20.234823 -82.227309 -21.353774 -20.400585 13.548036 11.526344 34.024430 -3.091047 5.816921 -11.918560 1.921712 -9.200481 0.000000 0.000000 0.000000 -20.234823 -82.227309 -21.353774 -13.337046 -22.536503 -10.983192 26.014107 9.045128 -9.688897 -11.158329 -2.326093 13.488793 0.000000 0.000000 0.000000 -20.234823 -82.227309 -21.353774 0.000000 0.000000 0.000000 2.235504 0.031431 0.028299 4.519638 -0.089366 1.726252 0.000000 0.000000 0.000000 4.495336 -0.077918 1.770642 -2.555452 3.655185 -1.946548 0.000000 0.000000 0.000000 4.495336 -0.077918 1.770642 -0.246491 4.979598 -2.258062 35.894956 -78.150943 -31.336751 -0.000003 -14.217750 -0.000006 0.000000 0.000000 0.000000 4.495336 -0.077918 1.770642 1.659758 4.618665 6.455622 8.485925 25.881233 60.941065 0.000011 32.359561 -0.000019 0.000000 0.000000 0.000000 
-4.705021 92.458458 0.393099 0.000000 0.000000 0.000000 -20.163627 -82.216565 -21.292476 -20.413555 13.499422 11.511860 34.012047 -3.049339 5.839257 -11.892300 1.923076 -9.225716 0.000000 0.000000 0.000000 -20.163627 -82.216565 -21.292476 -13.324849 -22.535051 -10.960105 25.980416 9.027359 -9.682482 -11.134276 -2.327415 13.484565 0.000000 0.000000 0.000000 -20.163627 -82.216565 -21.292476 0.000000 0.000000 0.000000 2.238070 0.026632 0.053904 4.522399 -0.099934 1.750728 0.000000 0.000000 0.000000 4.497651 -0.087836 1.795579 -2.547824 3.662845 -1.966794 0.000000 0.000000 0.000000 4.497651 -0.087836 1.795579 -0.247966 5.019036 -2.356161 37.663053 -78.302989 -29.535357 -0.000001 -14.190211 -0.000005 0.000000 0.000000 0.000000 4.497651 -0.087836 1.795579 1.667237 4.664969 6.413227 8.477767 25.804137 60.982982 0.000015 32.399979 -0.000026 0.000000 0.000000 0.000000 
-4.678320 92.458145 0.379072 0.000000 0.000000 0.000000 -20.041708 -82.218026 -21.178315 -20.452797 13.461949 11.494114 34.006289 -2.993852 5.876487 -11.856807 1.925775 -9.260225 0.000000 0.000000 0.000000 -20.041708 -82.218026 -21.178315 -13.351628 -22.514014 -10.925145 25.978835 8.996006 -9.700610 -11.111639 -2.331394 13.485450 0.000000 0.000000 0.000000 -20.041708 -82.218026 -21.178315 0.000000 0.000000 0.000000 2.247195 0.029935 0.075928 4.537762 -0.095035 1.771961 0.000000 0.000000 0.000000 4.512693 -0.082144 1.817280 -2.545694 3.669476 -1.984402 0.000000 0.000000 0.000000 4.512693 -0.082144 1.817280 -0.248985 5.035890 -2.392462 39.218997 -78.480718 -27.926337 -0.000005 -14.133336 -0.000013 0.000000 0.000000 0.000000 4.512693 -0.082144 1.817280 1.673018 4.701752 6.407462 8.466733 25.643964 61.012495 -0.000002 32.534295 -0.000002 0.000000 0.000000 0.000000 
-4.635186 92.453384 0.356901 0.000000 0.000000 0.000000 -19.898465 -82.242123 -21.038963 -20.520041 13.451541 11.476011 34.006884 -2.927042 5.932224 -11.811536 1.929874 -9.305134 0.000000 0.000000 0.000000 -19.898465 -82.242123 -21.038963 -13.428172 -22.457237 -10.874417 26.020198 8.946600 -9.748783 -11.089242 -2.338503 13.491987 0.000000 0.000000 0.000000 -19.898465 -82.242123 -21.038963 0.000000 0.000001 0.000000 2.263896 0.043694 0.089137 4.568439 -0.069668 1.787678 0.000000 0.000000 0.000000 4.543275 -0.055914 1.833348 -2.549611 3.674779 -1.998608 0.000000 0.000000 0.000000 4.543275 -0.055914 1.833348 -0.249779 5.029725 -2.362026 40.558599 -78.687946 -26.505263 -0.000001 -14.059667 0.000013 0.000000 0.000000 0.000000 4.543275 -0.055914 1.833348 1.676221 4.723801 6.435426 8.445645 25.400978 61.029277 -0.000000 32.779710 -0.000006 0.000000 0.000000 0.000000 
-4.572402 92.444412 0.325514 0.000000 0.000000 0.000000 -19.791595 -82.301730 -20.930010 -20.610997 13.488924 11.459696 34.010695 -2.855765 6.011845 -11.756859 1.935233 -9.360988 0.000000 0.000000 0.000000 -19.791595 -82.301730 -20.930010 -13.562211 -22.349508 -10.805172 26.111871 8.879940 -9.831448 -11.063384 -2.348953 13.504022 0.000000 0.000000 0.000000 -19.791595 -82.301730 -20.930010 0.000000 0.000001 0.000000 2.288556 0.069737 0.087357 4.616215 -0.019703 1.794978 0.000000 0.000000 0.000000 4.591257 -0.005132 1.840728 -2.559909 3.678448 -2.008740 0.000000 0.000000 0.000000 4.591257 -0.005132 1.840728 -0.250651 5.006649 -2.274221 41.725759 -78.911272 -25.218517 0.000000 -14.003582 0.000004 0.000000 0.000000 0.000000 4.591257 -0.005132 1.840728 1.675897 4.724608 6.488809 8.406033 25.091269 61.032228 -0.000001 33.144893 -0.000010 0.000000 0.000000 0.000000 
-4.487124 92.432892 0.284180 0.000000 0.000000 0.000000 -19.805662 -82.411054 -20.933360 -20.713513 13.597386 11.445761 34.006508 -2.789641 6.123330 -11.690641 1.941394 -9.429835 0.000000 0.000000 0.000000 -19.805662 -82.411054 -20.933360 -13.756012 -22.179894 -10.714901 26.253454 8.803268 -9.952192 -11.026042 -2.362524 13.520468 0.000000 0.000000 0.000000 -19.805662 -82.411054 -20.933360 0.000000 0.000000 0.000000 2.320852 0.108697 0.064000 4.681730 0.057317 1.790324 0.000000 0.000000 0.000000 4.657385 0.072495 1.835728 -2.576454 3.680235 -2.014298 0.000000 0.000000 0.000000 4.657385 0.072495 1.835728 -0.252009 4.978567 -2.151889 42.779401 -79.114628 -23.998170 0.000004 -14.023796 0.000019 0.000000 0.000000 0.000000 4.657385 0.072495 1.835728 1.671138 4.697602 6.557274 8.339531 24.744923 61.018574 -0.000005 33.629205 0.000012 0.000000 0.000000 0.000000 
-4.376602 92.422409 0.231762 0.000000 0.000000 0.000000 -20.043258 -82.582670 -21.147589 -20.807343 13.798225 11.428849 33.973419 -2.737825 6.276155 -11.606532 1.947635 -9.513825 0.000000 0.000000 0.000000 -20.043258 -82.582670 -21.147589 -14.005814 -21.940115 -10.601152 26.436703 8.724785 -10.112964 -10.965976 -2.378568 13.539493 0.000000 0.000000 0.000000 -20.043258 -82.582670 -21.147589 0.000000 0.000000 0.000000 2.359784 0.160212 0.012804 4.764470 0.161651 1.769683 0.000000 0.000000 0.000000 4.741216 0.176965 1.814186 -2.598886 3.680143 -2.015074 0.000000 0.000000 0.000000 4.741216 0.176965 1.814186 -0.254391 4.960598 -2.026238 43.727701 -79.241095 -22.827834 0.000001 -14.194361 0.000006 0.000000 0.000000 0.000000 4.741216 0.176965 1.814186 1.661302 4.637911 6.632725 8.241802 24.398848 60.982456 -0.000012 34.229210 0.000030 0.000000 0.000000 0.000000 
